<svg id="Слой_1" data-name="Слой 1" xmlns="http://www.w3.org/2000/svg" viewBox="0 0 1920 1080"><defs><style>.cls-1{fill:none;}.cls-2{fill:#036f96;}.cls-3{fill:#4d4d4d;}</style></defs><rect class="cls-1" width="1920" height="1080"/><g id="Web_1920_3" data-name="Web 1920 3"><g id="Сгруппировать_1" data-name="Сгруппировать 1"><path id="Контур_17" data-name="Контур 17" class="cls-2" d="M636.34,709.18a89.78,89.78,0,0,1-65.05-148.44A83,83,0,0,0,667.6,688.17h0a82.9,82.9,0,0,0,38.65-124.72,69.2,69.2,0,0,0-16-16.7c-8-5.94-38.83-18.82-80.66-27.77-21.67-4.64-44.48-12-64.55-23.43-16.52-9.44-31.19-21.69-43.88-34.65-35-35.78-44.55-86.69-44.55-86.69s21.33,45,67.1,77.28c9.86,7,20.51,13.86,31.66,20.24,20.7,11.82,43.17,21.86,64.12,30.06,36,14.09,71.34,43,71.34,43s11.3,9.86,15,13.85a89.18,89.18,0,0,1,10,13.2,90.88,90.88,0,0,1,12.36,32.82,90,90,0,0,1-88.84,104.53C638.3,709.23,637.32,709.21,636.34,709.18Zm-3.16-218.67c-19-11.44-38.16-25.78-53.41-43.16-12.54-14.3-22.43-30.66-30.2-47.05-21.45-45.22-13.9-96.47-13.9-96.47s5.52,49.48,38.29,94.92c7.06,9.79,14.88,19.78,23.35,29.44C613,446.11,631,462.91,648.15,477.48c34.05,28.95,50.15,61.41,50.15,61.41S673.22,514.65,633.18,490.51ZM657.6,467.8c-15.09-16.23-29.58-35.3-39.44-56.21C610,394.38,605.05,375.93,602.09,358c-8.16-49.38,13.23-96.56,13.23-96.56S607,310.55,626,363.27c4.08,11.36,8.85,23.11,14.33,34.74,10.17,21.55,22.82,42.66,35.28,61.4,24.76,37.21,31.29,72.85,31.29,72.85S689.44,502,657.6,467.8Zm40.66,15.83c-4.8-11.2-9-16.57-9-16.57l9.47-24.67a51.59,51.59,0,0,1-10.37-2.72,83.42,83.42,0,0,1-11.08-5.51,39,39,0,0,0,8.42,1.66c4.09.24,5.79.16,9.19-1.1s10-5.89,20.12-6.9S731,430,731,430s3.6-.78,9.53-1.67a47,47,0,0,1,11.49-.18s-4,1.88-10.36,5.39a93.56,93.56,0,0,0-11.38,7.4,16,16,0,0,1-5.51,9.84c-5.06,4.42-14.74,7.82-14.74,7.82a26.16,26.16,0,0,1,4.88,13.31c.63,8.05-2.37,18.91-2.37,18.91s-2.39,8.41-3.39,13.67-.63,7.36-.63,7.36-5.43-17-10.23-28.23Z" transform="translate(0 0)"/><path id="Контур_93" data-name="Контур 93" d="M840.45,560c0,.54-.57.8-1.69.8h-.88c-.75,0-2.12,0-4.1-.08s-3.51-.08-4.58-.08c-1.61,0-3.49,0-5.63.08h-4.9q-1.68,0-1.68-.72c0-.53.77-.8,2.33-.8,2.73,0,4.39-.29,5-.88.26-.27.4-2.06.4-5.39V511.34c0,.05-.3,1-.89,2.81q-3.21,9.72-9.31,29.25l-3.78,12.77c-.75,2.52-1.28,3.77-1.61,3.77s-.77-.64-1.2-1.92q-2.32-7.32-13.18-36.48l-3.21-8.6c.05,1,.08,2.41.08,4.18v26.11q0,14.7.24,14.86c.37.7,1.66,1,3.86,1,1.76,0,2.65.24,2.65.72s-.57.8-1.69.8c-.7,0-1.34,0-1.93-.08-.75-.05-1.42-.08-2-.08l-9.23.24c-1,0-1.45-.24-1.45-.72s1.53-.83,4.58-.89c1.28,0,2-.21,2.25-.64a14.33,14.33,0,0,0,.32-4.18V515.84c0-4.45-.06-6.86-.16-7.23a2.2,2.2,0,0,0-1.37-1.53,19.54,19.54,0,0,0-4.5-.64c-.86-.05-1.28-.29-1.28-.72,0-.59.77-.89,2.33-.89.21,0,.67,0,1.36.08h4.18c3.16,0,5.38,0,6.67-.08q.41,1.05,4.74,12.62,1.85,4.81,10.37,28.11,1.51-5.22,3.13-10.28l8.52-26.59c.48-1.55.91-2.84,1.28-3.86l12-.08a9.83,9.83,0,0,1,3.06.24.83.83,0,0,1,.4.73c0,.53-.46.8-1.37.8a18.29,18.29,0,0,0-3.05.16A3.94,3.94,0,0,0,832.9,508q-.4.57-.4,9.4v37.36c0,2.15.21,3.4.64,3.78q1,.72,5.22.72h.48C839.91,559.22,840.45,559.49,840.45,560Zm52.62.08c0,.49-.4.73-1.21.73a13.9,13.9,0,0,1-1.44-.08l-10.2-.16-10.2.16a9.71,9.71,0,0,1-1.21.08c-1.07,0-1.6-.27-1.6-.8s.72-.89,2.16-.89c4.72,0,7.07-.53,7.07-1.44a3.85,3.85,0,0,0-.16-.65l-.64-2.16-.4-1.13q-.72-2.49-3.53-11h-17.2q-4.83,12.86-4.82,14.79a1.23,1.23,0,0,0,1,1.36c.16.05,1.5.16,4,.32,1.55,0,2.33.32,2.33.8s-.7.8-2.09.8q-3.7,0-8.6-.32c-.81,0-1.64-.08-2.49-.08a18.71,18.71,0,0,0-2.49.16,7.42,7.42,0,0,1-1.05.08c-.75,0-1.12-.24-1.12-.72s.84-.75,2.53-.8a7.82,7.82,0,0,0,3.65-.77,4.54,4.54,0,0,0,1.77-2.61q10.36-29.57,16.88-47.47a10.21,10.21,0,0,1,.64-2.17l.4-1.45c.16-.59.37-.88.64-.88s.3.16.4.48q1,3.14,4.74,13.1,2.9,7.8,14.38,39.12a3.73,3.73,0,0,0,1.65,2.25,12.06,12.06,0,0,0,4.14.57C892.37,559.36,893.07,559.62,893.07,560.1Zm-21.85-19.2-4.26-12-3.86-11q-3.37,8.84-8.11,23Zm72.38-8q0,14.13-9.88,22-7.23,5.77-19.36,5.78c-.22,0-1.17,0-2.85-.08s-4.14-.08-7.36-.08h-4l-6.35.08a8.06,8.06,0,0,1-1.2.08c-1,0-1.53-.26-1.53-.8s.86-.72,2.57-.72c2.2,0,3.56-.4,4.1-1.21a8,8,0,0,0,.32-3v-43.3c0-2.62-.2-4.15-.6-4.58s-1.78-.64-4.14-.64c-1.23,0-1.84-.29-1.84-.88,0-.43.45-.65,1.36-.65l1.77.08c1.23.06,2.44.08,3.61.08h8.6q14.46,0,20.49,2a21.87,21.87,0,0,1,11.81,9.52,29.94,29.94,0,0,1,4.49,16.35Zm-9-.33q0-13.34-5.22-19.56t-16.31-6.22q-5.39,0-6.51,1.12c-.32.38-.48,1.66-.48,3.86v42.74a17.77,17.77,0,0,0,.12,2.73,1.33,1.33,0,0,0,.69.8c1.28.65,4,1,8.11,1a17.64,17.64,0,0,0,14-6.11q5.63-6.42,5.62-20.32ZM999,560.1q0,.72-1.2.72a10,10,0,0,1-1.45-.08l-10.2-.16-10.2.16a6.92,6.92,0,0,1-1.2.08c-1.08,0-1.61-.26-1.61-.8s.72-.88,2.17-.88c4.71,0,7.07-.54,7.07-1.45a5,5,0,0,0-.16-.64l-.65-2.17-.4-1.12q-.72-2.49-3.53-11h-17.2q-4.82,12.86-4.82,14.78a1.24,1.24,0,0,0,1,1.37c.16.05,1.5.16,4,.32,1.56,0,2.33.32,2.33.8s-.69.8-2.09.8q-3.69,0-8.6-.32c-.8,0-1.63-.08-2.49-.08a18.93,18.93,0,0,0-2.49.16,8.93,8.93,0,0,1-1,.08c-.75,0-1.13-.24-1.13-.72s.85-.75,2.54-.8a7.82,7.82,0,0,0,3.65-.77,4.62,4.62,0,0,0,1.77-2.61q10.37-29.57,16.87-47.48a10.39,10.39,0,0,1,.64-2.17l.4-1.44c.16-.59.38-.89.64-.89s.3.16.4.49q1,3.12,4.74,13.1,2.89,7.78,14.39,39.12a3.73,3.73,0,0,0,1.65,2.25,11.79,11.79,0,0,0,4.13.56c1.4.06,2.09.32,2.09.8ZM977.1,540.9q-1.27-3.61-4.26-12l-3.85-11q-3.37,8.85-8.12,23Zm69.82-35.26q0,.8-2,.72l-1.77-.08h-1.44c-.86,0-1.37.15-1.53.44a8.14,8.14,0,0,0-.24,2.69v46.28c0,2.84,0,4.5-.08,5s-.21.72-.48.72-.7-.29-1.13-.88l-10.28-15q-8.93-13.1-21.69-32.7l.08,44.83a1.4,1.4,0,0,0,1.2,1.33,32.29,32.29,0,0,0,5.38.36c.7,0,1.05.22,1.05.64s-.7.8-2.09.8c-.48,0-2-.08-4.58-.24-.86,0-1.69-.08-2.49-.08,0,0-.42.06-1.41.16s-2.5.16-4.53.16h-.8c-1.24,0-1.85-.24-1.85-.72s.53-.72,1.6-.72q4.74-.07,5.5-.6c.5-.35.76-1.48.76-3.41V515.68c0-4.45-.91-7.23-2.73-8.36a9.37,9.37,0,0,0-4.58-.8c-1.39,0-2.09-.26-2.09-.8s.4-.72,1.21-.72c1.07,0,2.43,0,4.1.08l2.65.08,2.25-.08c1.76,0,3.48,0,5.14-.08l27.72,41.21V510.46c0-1.66,0-2.67-.08-3a1.09,1.09,0,0,0-.64-.8,13.92,13.92,0,0,0-3.86-.28c-1.93,0-2.89-.24-2.89-.72s.64-.8,1.93-.8h5.06l1.52.08,1.45-.08h4.9C1046.33,504.83,1046.92,505.1,1046.92,505.64ZM1071.18,560c0,.43-.32.65-1,.65h-.8q-.5-.24-10.93-.24c-1.34,0-2.68.05-4,.16-.69,0-1.77.08-3.21.08-.7,0-1-.24-1-.73s.7-.66,2.09-.72c2.15-.05,3.4-.31,3.78-.76s.56-2,.56-4.62V511.58c0-2.62-.13-4.1-.4-4.42-.32-.53-1.79-.85-4.42-1-1-.06-1.52-.27-1.52-.65s.32-.72,1-.72l10.85.16c.8,0,2.35,0,4.66-.08l3-.08c.86,0,1.28.24,1.28.73s-1.17.69-3.53.8c-1.34.05-2.16.29-2.45.72a7.59,7.59,0,0,0-.44,3.37v42.9c0,3.06.13,4.72.4,5q.89.88,5.22,1C1070.89,559.38,1071.18,559.6,1071.18,560Zm51.74-54.47c0,.43-.46.65-1.37.65-2.94.05-4.77.56-5.46,1.52q-1,.88-6.91,13.66-2.65,5.7-5,10a19.57,19.57,0,0,0-1.85,4.06,28.42,28.42,0,0,0-.24,4.7v15.18c0,1.77.23,2.82.68,3.14s2,.56,4.78.72c1.45.11,2.17.37,2.17.8s-.37.64-1.12.64h-1l-11.24-.24c-3.16,0-5.76.06-7.8.16a6,6,0,0,1-1.12.08c-.75,0-1.13-.24-1.13-.72s.62-.75,1.85-.8c3-.11,4.69-.37,5.22-.8s.8-1.71.8-3.86v-17q-.8-1.77-4.66-9.4l-8-15.91q-1.21-2.33-2.89-5.22c-.59-.53-1.87-.8-3.82-.8s-2.93-.29-2.93-.88c0-.43.43-.65,1.28-.65,1.13,0,3.38.06,6.75.16,1.93.06,3.32.08,4.18.08l9.32-.08a10.86,10.86,0,0,1,1.28-.08c1,0,1.45.27,1.45.8s-.91.73-2.73.73q-5,0-5,1.76c0,.92,1.68,4.58,5.06,11l7.31,13.9q2-3.62,4.58-8.92l4.74-9.56c1.76-3.43,2.65-5.67,2.65-6.75,0-.69-.46-1.09-1.37-1.2a20.71,20.71,0,0,0-3.77-.32c-1.18.05-1.77-.21-1.77-.8,0-.43.51-.64,1.53-.64l4.66.08,2.65-.08C1120.18,504.59,1122.92,504.86,1122.92,505.55Zm69,54.39c0,.49-.51.73-1.53.73l-11.09-.08c-.75,0-1.84,0-3.29.08s-2.52.08-3.21.08c-1.08,0-1.61-.22-1.61-.65s1.26-.72,3.78-.88c1.33-.11,2.11-.33,2.33-.68a11.48,11.48,0,0,0,.32-3.74V531.34h-24.18v22.74c0,2.41.18,3.83.56,4.26s1.63.72,3.77.88c1.4.11,2.09.35,2.09.72s-.53.73-1.6.73h-.73c-1.28,0-2.63,0-4-.08s-2.27-.08-2.53-.08c-.75,0-1.88,0-3.38.08s-3.75.08-6.75.08c-1.07,0-1.6-.22-1.6-.65s.53-.69,1.6-.8l2.17-.16a3.15,3.15,0,0,0,2.25-.8,18.81,18.81,0,0,0,.24-4.5V511.34a13.35,13.35,0,0,0-.36-4.26c-.24-.43-1.08-.67-2.53-.72-1.66-.11-2.64-.19-2.93-.24s-.44-.27-.44-.65.34-.64,1-.64c.21,0,.67,0,1.37.08q2,.16,9.48.16c2.73,0,4.63,0,5.7-.08a11.58,11.58,0,0,1,1.44-.08c1,0,1.45.27,1.45.8s-.87.73-2.61.73-2.79.2-3.14.6-.52,1.67-.52,3.81v18.48h24.19V512.06c0-2.84-.22-4.51-.65-5s-1.92-.73-4.5-.68q-1.2,0-1.2-.72c0-.49.45-.73,1.37-.73H1177c1.93.06,3.38.08,4.34.08,3.27,0,5.48,0,6.63-.08s1.89-.08,2.21-.08c1.12,0,1.69.24,1.69.73s-1.18.74-3.54.8a5,5,0,0,0-1.53.16,1.37,1.37,0,0,0-1,.88,19.89,19.89,0,0,0-.2,3.78v42.74c0,2.57.14,4.07.4,4.5.54.59,2.09.88,4.66.88C1191.5,559.19,1191.93,559.41,1191.93,559.94Zm54.23.17c0,.48-.41.72-1.21.72a11.48,11.48,0,0,1-1.44-.08l-10.2-.16-10.2.16a9.83,9.83,0,0,1-1.21.08c-1.07,0-1.61-.27-1.61-.8s.73-.89,2.17-.89c4.72,0,7.07-.53,7.07-1.44a4.61,4.61,0,0,0-.16-.64l-.64-2.18-.4-1.12q-.72-2.49-3.54-11h-17.2q-4.81,12.86-4.82,14.78a1.24,1.24,0,0,0,1,1.37c.16.05,1.5.16,4,.32,1.55,0,2.33.32,2.32.8s-.69.8-2.08.8q-3.7,0-8.6-.32c-.81,0-1.64-.08-2.49-.08a19,19,0,0,0-2.5.16,7.17,7.17,0,0,1-1,.08c-.75,0-1.12-.24-1.12-.72s.84-.75,2.53-.8a7.82,7.82,0,0,0,3.65-.77,4.58,4.58,0,0,0,1.77-2.61q10.36-29.57,16.87-47.47a10.85,10.85,0,0,1,.65-2.17l.4-1.45c.16-.59.37-.88.64-.88s.29.16.4.48q1,3.14,4.74,13.1,2.89,7.8,14.38,39.12a3.73,3.73,0,0,0,1.65,2.25,11.79,11.79,0,0,0,4.13.56c1.4.06,2.1.32,2.1.8Zm-21.85-19.21-4.26-12-3.86-11q-3.37,8.85-8.11,23Zm67.88-35.35c0,.43-.45.64-1.36.64q-4.42.09-5.47,1.53-1,.88-6.91,13.66-2.64,5.7-5,10a20.67,20.67,0,0,0-1.85,4.06,28.37,28.37,0,0,0-.24,4.7v15.18c0,1.77.23,2.82.69,3.14s2,.56,4.78.72c1.44.11,2.17.37,2.17.8s-.38.64-1.13.64h-1l-11.25-.24c-3.16,0-5.76.06-7.79.16a6.14,6.14,0,0,1-1.13.08c-.75,0-1.12-.24-1.12-.72s.61-.75,1.85-.8c2.94-.11,4.68-.37,5.22-.8s.8-1.71.8-3.86v-17q-.81-1.77-4.66-9.4l-8-15.91q-1.2-2.33-2.89-5.22c-.59-.53-1.86-.8-3.82-.8s-2.93-.29-2.93-.88c0-.43.43-.65,1.29-.65,1.12,0,3.37.06,6.75.16,1.92.06,3.32.08,4.17.08l9.32-.08a11.17,11.17,0,0,1,1.29-.08c1,0,1.44.27,1.44.8s-.91.73-2.73.73q-5,0-5,1.76c0,.92,1.69,4.58,5.06,11l7.31,13.9q2-3.62,4.58-8.92l4.74-9.56c1.77-3.43,2.65-5.67,2.65-6.75,0-.69-.45-1.09-1.36-1.2a20.79,20.79,0,0,0-3.77-.32c-1.18.05-1.77-.21-1.77-.8,0-.43.51-.64,1.53-.64l4.66.08,2.65-.08c5.46-.17,8.19.1,8.19.79Zm53.59,27.56q0,12-7.19,20.25a22.52,22.52,0,0,1-17.64,8.27,24.08,24.08,0,0,1-18.64-8.4q-7.55-8.4-7.55-20.69,0-12.52,7.27-20.52a24,24,0,0,1,18.6-8,22.76,22.76,0,0,1,17.92,8.36Q1345.78,520.74,1345.78,533.11Zm-9,.4q0-14.7-6-22.9a12.31,12.31,0,0,0-10.52-5.14q-6.43,0-10,3.94-6.51,7.23-6.51,23.54,0,12.93,4.54,20.09a14.29,14.29,0,0,0,12.73,7.15,12.46,12.46,0,0,0,11.49-6.75q4.26-7.47,4.26-19.93ZM1395,519.13c0,.7-.32,1-1,1s-1.09-.7-1.36-2.09l-.32-2.89a14.07,14.07,0,0,0-1.85-4.9,7.91,7.91,0,0,0-5.55-3.38,17.38,17.38,0,0,0-4-.4c-2.52.11-4,.19-4.58.24V555.2c0,1.93.51,3.13,1.52,3.61a14.57,14.57,0,0,0,4.5.49c.65.05,1,.29,1,.72s-.43.72-1.29.72a6,6,0,0,1-1.12-.08c-3.21-.1-5.49-.16-6.83-.16-1.77,0-3.43,0-5,.08s-3.54.08-6,.08c-1.23,0-1.84-.21-1.84-.64s1.15-.75,3.45-.8q2.49,0,3.21-1.05a7.66,7.66,0,0,0,.4-3.29V506.76q-8,.08-9.88.8-5.05,1.85-5.94,9.88c-.16,1.61-.54,2.41-1.13,2.41s-1-.56-1-1.68c0-.59,0-1.18.08-1.77l.16-1.85q.24-3.7.72-9.72h3.62l16.39.24c1.93.05,4.93,0,9-.08l13.33-.24q.17,4.5,1,13.34a2.47,2.47,0,0,0,.08.6C1395,518.83,1395,519,1395,519.13Z" transform="translate(0 0)"/><path id="Контур_94" data-name="Контур 94" class="cls-3" d="M972.92,616.72h-2.56v-11a9.24,9.24,0,0,0-1.09-5,3.67,3.67,0,0,0-3.24-1.62,5.54,5.54,0,0,0-2.13.42,6.48,6.48,0,0,0-1.85,1.16,7.93,7.93,0,0,0-1.48,1.79,8.36,8.36,0,0,0-1,2.28v12H957v-11a9.48,9.48,0,0,0-1.06-5.09,3.64,3.64,0,0,0-3.24-1.58,5.79,5.79,0,0,0-4,1.55,8.55,8.55,0,0,0-2.49,4.06v12h-2.56V597.1h2.34v4.44a9.24,9.24,0,0,1,3.16-3.52,7.76,7.76,0,0,1,4.33-1.26,5.63,5.63,0,0,1,4,1.39,6.08,6.08,0,0,1,1.82,3.65q2.75-5,7.57-5a6,6,0,0,1,2.81.6,4.72,4.72,0,0,1,1.84,1.71,8.08,8.08,0,0,1,1,2.68,17.68,17.68,0,0,1,.32,3.48Zm10.36.37a6.86,6.86,0,0,1-2.58-.47,6.63,6.63,0,0,1-2.08-1.3,5.88,5.88,0,0,1-1.86-4.33,4.8,4.8,0,0,1,.6-2.37,5.65,5.65,0,0,1,1.69-1.88,8.39,8.39,0,0,1,2.6-1.23,12,12,0,0,1,3.32-.43,18.38,18.38,0,0,1,3,.26,13.85,13.85,0,0,1,2.75.76v-1.77a5.75,5.75,0,0,0-1.47-4.13,5.35,5.35,0,0,0-4.07-1.52,8.62,8.62,0,0,0-3.09.6,14.56,14.56,0,0,0-3.2,1.73l-.9-1.7a13.36,13.36,0,0,1,7.38-2.56,7.92,7.92,0,0,1,5.8,2.07,7.66,7.66,0,0,1,2.11,5.73v8.85c0,.7.32,1.05.94,1.05v2.26a5.35,5.35,0,0,1-1,.11,2.16,2.16,0,0,1-1.52-.49,1.79,1.79,0,0,1-.58-1.35l-.08-1.55a8.8,8.8,0,0,1-3.41,2.72A10.55,10.55,0,0,1,983.28,617.09Zm.6-2a8.94,8.94,0,0,0,3.67-.76,6,6,0,0,0,2.54-2,2.46,2.46,0,0,0,.51-.73,2.05,2.05,0,0,0,.17-.74v-3.2a16.15,16.15,0,0,0-2.66-.75,14.59,14.59,0,0,0-2.8-.26,7.79,7.79,0,0,0-4.41,1.13,3.42,3.42,0,0,0-1.69,3,4,4,0,0,0,.36,1.7,4.05,4.05,0,0,0,1,1.37,4.62,4.62,0,0,0,1.49.93,5,5,0,0,0,1.84.33Zm23,2a8.3,8.3,0,0,1-3.76-.84,9.78,9.78,0,0,1-3-2.24,10.27,10.27,0,0,1-1.93-3.22,10.44,10.44,0,0,1-.7-3.83,11.21,11.21,0,0,1,.68-3.93,10.46,10.46,0,0,1,1.86-3.26,8.76,8.76,0,0,1,2.82-2.2,7.9,7.9,0,0,1,3.6-.81,7.68,7.68,0,0,1,4.41,1.3,9.71,9.71,0,0,1,3,3.14v-12h2.56V613.4c0,.71.3,1.06.9,1.06v2.26a5.27,5.27,0,0,1-.9.11,2.36,2.36,0,0,1-1.58-.58,1.83,1.83,0,0,1-.68-1.42v-1.92a8.48,8.48,0,0,1-3.16,3.05,8.19,8.19,0,0,1-4.15,1.13Zm.57-2.26a6,6,0,0,0,2-.37,8.37,8.37,0,0,0,2-1,7.13,7.13,0,0,0,1.6-1.55,4.25,4.25,0,0,0,.81-1.9v-6.07a6.9,6.9,0,0,0-1.09-1.9,9,9,0,0,0-1.64-1.56,7.53,7.53,0,0,0-2-1.05,5.84,5.84,0,0,0-2.07-.38,5.94,5.94,0,0,0-2.86.68,7.05,7.05,0,0,0-2.2,1.79,8.14,8.14,0,0,0-1.42,2.54,9.1,9.1,0,0,0-.49,2.93,8.27,8.27,0,0,0,2.11,5.52,7.51,7.51,0,0,0,2.32,1.71,6.51,6.51,0,0,0,2.88.64Zm19.73,2.26a6.9,6.9,0,0,1-2.58-.47,6.47,6.47,0,0,1-2.07-1.3,5.83,5.83,0,0,1-1.38-1.94,5.91,5.91,0,0,1-.49-2.39,4.91,4.91,0,0,1,.6-2.37,5.68,5.68,0,0,1,1.7-1.88,8.39,8.39,0,0,1,2.6-1.23,11.94,11.94,0,0,1,3.31-.43,18.2,18.2,0,0,1,3,.26,13.66,13.66,0,0,1,2.75.76v-1.77a5.74,5.74,0,0,0-1.46-4.13,5.39,5.39,0,0,0-4.07-1.52,8.62,8.62,0,0,0-3.09.6,15,15,0,0,0-3.2,1.73l-.9-1.69a13.3,13.3,0,0,1,7.38-2.57,7.89,7.89,0,0,1,5.8,2.08,7.62,7.62,0,0,1,2.11,5.72v8.85c0,.7.32,1.05.94,1.05v2.26a5.36,5.36,0,0,1-1,.12,2.22,2.22,0,0,1-1.53-.49,1.81,1.81,0,0,1-.58-1.36l-.08-1.54a8.94,8.94,0,0,1-3.41,2.71,10.41,10.41,0,0,1-4.43.94Zm.6-2a8.91,8.91,0,0,0,3.67-.76,5.88,5.88,0,0,0,2.54-2,2.22,2.22,0,0,0,.52-.73,2,2,0,0,0,.17-.73v-3.2a16.18,16.18,0,0,0-2.66-.76,15.44,15.44,0,0,0-2.8-.26,7.77,7.77,0,0,0-4.41,1.13,3.4,3.4,0,0,0-1.69,3,4,4,0,0,0,.35,1.7,4.46,4.46,0,0,0,1,1.37,4.62,4.62,0,0,0,1.49.93,5,5,0,0,0,1.85.33Zm31.49,1.58h-2.56v-11a9.56,9.56,0,0,0-1-5.09,3.54,3.54,0,0,0-3.18-1.58,6.7,6.7,0,0,0-2.26.42,7.65,7.65,0,0,0-2.09,1.16,9.06,9.06,0,0,0-1.71,1.79,6.86,6.86,0,0,0-1.09,2.24v12h-2.57V597.1h2.34v4.44a9.14,9.14,0,0,1,3.44-3.46,9.44,9.44,0,0,1,4.88-1.32,5.7,5.7,0,0,1,2.75.6,4.74,4.74,0,0,1,1.81,1.69,8,8,0,0,1,1,2.68,18.59,18.59,0,0,1,.3,3.5Zm5.46,0V597.1h2.56v19.62Zm0-23.73v-3.76h2.56V593Zm9.34,29.75.58.06.55,0a2.6,2.6,0,0,0,1.07-.19,2,2,0,0,0,.77-.83,13.92,13.92,0,0,0,.85-1.84c.31-.81.76-1.89,1.34-3.24l-8.55-19.62h2.63l7.27,17.24,6.74-17.24h2.45l-10.16,25.3a4.58,4.58,0,0,1-1.38,1.9,3.84,3.84,0,0,1-2.61.81c-.26,0-.49,0-.72,0a8,8,0,0,1-.83-.09Zm35.77-6h-2.56v-11a8.86,8.86,0,0,0-1.15-5,3.84,3.84,0,0,0-3.37-1.66,5.74,5.74,0,0,0-2.16.43,8.2,8.2,0,0,0-2,1.19,8.06,8.06,0,0,0-1.63,1.77,7.39,7.39,0,0,0-1,2.22v12h-2.56V589.23H1096v12.31a8.87,8.87,0,0,1,3.24-3.5,8.33,8.33,0,0,1,4.48-1.28,6,6,0,0,1,2.86.62,5.32,5.32,0,0,1,1.92,1.73,7.63,7.63,0,0,1,1.1,2.67,16.67,16.67,0,0,1,.33,3.45Zm10.4.37a7.09,7.09,0,0,1-2.58-.46,6.47,6.47,0,0,1-2.07-1.3,5.82,5.82,0,0,1-1.38-2,5.75,5.75,0,0,1-.49-2.39,4.8,4.8,0,0,1,.6-2.37,5.65,5.65,0,0,1,1.69-1.88,8.39,8.39,0,0,1,2.6-1.23,12,12,0,0,1,3.32-.43,18.38,18.38,0,0,1,3,.26,13.85,13.85,0,0,1,2.75.76v-1.77a5.75,5.75,0,0,0-1.47-4.13,5.35,5.35,0,0,0-4.07-1.52,8.62,8.62,0,0,0-3.09.6,14.56,14.56,0,0,0-3.2,1.73l-.9-1.7a13.36,13.36,0,0,1,7.38-2.56,7.92,7.92,0,0,1,5.8,2.07,7.66,7.66,0,0,1,2.11,5.73v8.85c0,.7.32,1.05.94,1.05v2.26a5.35,5.35,0,0,1-1,.11,2.16,2.16,0,0,1-1.52-.49,1.79,1.79,0,0,1-.58-1.35l-.08-1.55a8.8,8.8,0,0,1-3.41,2.72,10.55,10.55,0,0,1-4.42.94Zm.6-2a8.94,8.94,0,0,0,3.67-.76,6,6,0,0,0,2.54-2,2.46,2.46,0,0,0,.51-.73,2.05,2.05,0,0,0,.17-.74v-3.2a16.15,16.15,0,0,0-2.66-.75,14.59,14.59,0,0,0-2.8-.26,7.73,7.73,0,0,0-4.4,1.13,3.41,3.41,0,0,0-1.7,3,4.12,4.12,0,0,0,.36,1.7,4.05,4.05,0,0,0,1,1.37,4.62,4.62,0,0,0,1.49.93,5,5,0,0,0,1.84.33Zm15.63,7.6.58.06.55,0a2.6,2.6,0,0,0,1.07-.19,2,2,0,0,0,.77-.83,13.92,13.92,0,0,0,.85-1.84c.31-.81.76-1.89,1.34-3.24l-8.55-19.62h2.63l7.27,17.24,6.74-17.24h2.45l-10.16,25.3a4.58,4.58,0,0,1-1.38,1.9,3.84,3.84,0,0,1-2.61.81c-.26,0-.49,0-.72,0a8,8,0,0,1-.83-.09Zm27-5.65a9.23,9.23,0,0,1-3.91-.81,9.46,9.46,0,0,1-3.07-2.2,9.93,9.93,0,0,1-2-3.24,10.9,10.9,0,0,1,0-7.79,10.3,10.3,0,0,1,2-3.24,10.09,10.09,0,0,1,3.07-2.23,9.64,9.64,0,0,1,7.78,0,9.78,9.78,0,0,1,3.09,2.23,10.53,10.53,0,0,1,2.77,7.15,10.72,10.72,0,0,1-.72,3.88,10.07,10.07,0,0,1-2,3.24,9.75,9.75,0,0,1-3.09,2.2,9.37,9.37,0,0,1-3.94.81ZM1156.36,607a8.07,8.07,0,0,0,.56,3.07,8.53,8.53,0,0,0,1.53,2.49,7,7,0,0,0,2.26,1.67,6.46,6.46,0,0,0,2.77.6,6.29,6.29,0,0,0,2.76-.62,7.33,7.33,0,0,0,2.28-1.69,8.12,8.12,0,0,0,1.55-2.5,8.75,8.75,0,0,0,0-6.16,8,8,0,0,0-1.55-2.52,7.2,7.2,0,0,0-2.28-1.7,6.43,6.43,0,0,0-2.76-.62,6.19,6.19,0,0,0-2.75.62,7.3,7.3,0,0,0-2.26,1.71,8.23,8.23,0,0,0-1.55,2.55A8.42,8.42,0,0,0,1156.36,607Zm30.31,8.77q-.23.12-.66.3a9.21,9.21,0,0,1-1,.38,11.5,11.5,0,0,1-1.28.34,7.56,7.56,0,0,1-1.5.15,5.58,5.58,0,0,1-1.58-.22,3.74,3.74,0,0,1-1.32-.7,3.51,3.51,0,0,1-.9-1.19,3.8,3.8,0,0,1-.34-1.66v-14h-2.71v-2h2.71v-6.63h2.56v6.63h4.52v2h-4.52v13.33a2,2,0,0,0,.77,1.6,2.63,2.63,0,0,0,1.6.51,4.85,4.85,0,0,0,1.92-.36,7.36,7.36,0,0,0,1.06-.51Zm2.82,1V613h2.23v3.69Zm13.64.37a5.49,5.49,0,0,1-4.77-2.13c-1-1.41-1.56-3.53-1.56-6.34V597.1h2.56v11.07q0,6.66,4.56,6.66a6.76,6.76,0,0,0,2.22-.37,6.67,6.67,0,0,0,2-1.1,8.31,8.31,0,0,0,1.66-1.69,9,9,0,0,0,1.19-2.22V597.1h2.56v16.3c0,.71.3,1.06.9,1.06v2.26a4.53,4.53,0,0,1-.74.07h-.4a2,2,0,0,1-1.46-.64,2.23,2.23,0,0,1-.57-1.62v-2.26a9.31,9.31,0,0,1-8.16,4.82ZM1217.7,615,1231,599h-13V597.1h15.75v1.73l-13.22,16h13.18v1.92h-16Z" transform="translate(0 0)"/></g><rect class="cls-1" width="1920" height="1080"/></g></svg>